<?xml version="1.0" encoding="UTF-8"?>
<svg id="Layer_2" data-name="Layer 2" xmlns="http://www.w3.org/2000/svg" viewBox="0 0 264.85 432.96">
  <defs>
    <style>
      .cls-1 {
        fill: #000;
        stroke-width: 0px;
      }
    </style>
  </defs>
  <g id="Layer_1-2" data-name="Layer 1">
    <g>
      <polygon class="cls-1" points="155.27 267.65 0 432.96 58.47 312.35 19.4 312.35 94.47 148.48 170.64 169.86 101.86 267.65 155.27 267.65"/>
      <g>
        <path class="cls-1" d="M264.85,71.25l-8.36,19.7c-24.47-17.51-51.23-32.64-80.08-44.88-28.86-12.24-58.33-20.96-87.93-26.37L96.84,0c29.6,5.42,59.07,14.14,87.93,26.37,28.86,12.24,55.61,27.36,80.08,44.88Z"/>
        <path class="cls-1" d="M251.19,103.45l-8.36,19.7c-24.47-17.51-51.23-32.64-80.08-44.88-28.86-12.24-58.33-20.96-87.93-26.37l8.36-19.7c29.6,5.42,59.07,14.14,87.93,26.37,28.86,12.24,55.61,27.36,80.08,44.88Z"/>
        <path class="cls-1" d="M157.43,90.83c-28.86-12.24-58.33-20.96-87.93-26.37l-38.65,91.13,168.01,71.25,38.65-91.13c-24.47-17.51-51.23-32.64-80.08-44.88ZM131.29,152.47c-11.91-5.05-17.47-18.8-12.42-30.71,5.05-11.91,18.8-17.47,30.71-12.42,11.91,5.05,17.47,18.8,12.42,30.71-5.05,11.91-18.8,17.47-30.71,12.42Z"/>
      </g>
    </g>
  </g>
</svg>