<?xml version="1.0" encoding="UTF-8"?>
<svg id="Layer_1" data-name="Layer 1" xmlns="http://www.w3.org/2000/svg" viewBox="0 0 800 500">
  <defs>
    <style>
      .cls-1 {
        fill: #f1f2f2;
      }

      .cls-1, .cls-2, .cls-3 {
        stroke-width: 0px;
      }

      .cls-2 {
        fill: #000;
      }

      .cls-3 {
        fill: #008afc;
      }
    </style>
  </defs>
  <rect class="cls-1" x="-21.37" y="-13.35" width="842.73" height="526.64"/>
  <g>
    <g>
      <g>
        <path class="cls-2" d="M350.5,242.7v5.02h-24.01v-22.5h23.66v5.02h-17.2v3.7h14.18v4.79h-14.18v3.99h17.55Z"/>
        <path class="cls-2" d="M381.08,225.21v22.5h-5.75l-14.53-14.79v14.79h-6.33v-22.5h6.94l13.34,13.76v-13.76h6.33Z"/>
        <path class="cls-2" d="M410.39,242.7v5.02h-24.01v-22.5h23.66v5.02h-17.2v3.7h14.18v4.79h-14.18v3.99h17.55Z"/>
        <path class="cls-2" d="M433.46,247.72l-5.95-7.1h-6.62v7.1h-6.53v-22.5h15.78c5.75,0,10.22,2.54,10.22,7.68,0,3.76-2.38,6.14-5.92,7.17l6.62,7.65h-7.62ZM429.66,235.86c2.35,0,4.05-.64,4.05-2.83s-1.7-2.83-4.05-2.83h-8.81v5.66h8.81Z"/>
        <path class="cls-2" d="M470.83,243.48c-2.41,2.99-6.85,4.98-12.86,4.98-9.23,0-14.95-4.37-14.95-11.99s5.72-11.99,14.95-11.99c5.56,0,9.58,1.96,11.93,4.15l-4.79,3.54c-1.93-1.74-3.96-2.51-6.98-2.51-5.47,0-8.46,2.41-8.46,6.81s3.09,6.85,8.55,6.85c2.76,0,4.95-.55,6.53-1.99v-2.03h-7.46v-4.6h13.53v8.78Z"/>
        <path class="cls-2" d="M499.04,242.7v5.02h-24.01v-22.5h23.66v5.02h-17.2v3.7h14.18v4.79h-14.18v3.99h17.55Z"/>
        <path class="cls-2" d="M529.63,225.21v22.5h-5.75l-14.53-14.79v14.79h-6.33v-22.5h6.94l13.34,13.76v-13.76h6.33Z"/>
      </g>
      <g>
        <path class="cls-2" d="M348.01,269.29c0,3.64-3.58,6.24-10.09,6.24-4.49,0-8.45-1.31-11.43-3.88l2.05-2.32c2.6,2.32,5.66,3.37,9.52,3.37,4.27,0,6.62-1.12,6.62-3.12s-2.41-2.49-7.22-2.9c-5.28-.44-10.26-1.61-10.26-5.53s4.41-5.91,9.9-5.91c4.16,0,7.69,1.23,9.98,3.17l-2.08,2.24c-1.97-1.72-4.68-2.54-7.85-2.57-3.04-.03-6.65.71-6.65,2.85s3.2,2.38,7.38,2.71c5.96.46,10.12,1.67,10.12,5.66Z"/>
        <path class="cls-2" d="M352.5,255.81l7.3,9.71,7.25-9.71h3.77l-9.41,12.53v6.62h-3.28v-6.62l-9.44-12.53h3.8Z"/>
        <path class="cls-2" d="M392.97,269.29c0,3.64-3.58,6.24-10.09,6.24-4.49,0-8.45-1.31-11.43-3.88l2.05-2.32c2.6,2.32,5.66,3.37,9.52,3.37,4.27,0,6.62-1.12,6.62-3.12s-2.41-2.49-7.22-2.9c-5.28-.44-10.26-1.61-10.26-5.53s4.41-5.91,9.9-5.91c4.16,0,7.69,1.23,9.98,3.17l-2.08,2.24c-1.97-1.72-4.68-2.54-7.85-2.57-3.04-.03-6.65.71-6.65,2.85s3.2,2.38,7.38,2.71c5.96.46,10.12,1.67,10.12,5.66Z"/>
        <path class="cls-2" d="M414.83,258.68h-8.72v16.27h-3.28v-16.27h-8.67v-2.87h20.68v2.87Z"/>
        <path class="cls-2" d="M437.36,272.08v2.87h-19.06v-19.15h18.79v2.87h-15.54v5.11h13.07v2.87h-13.07v5.41h15.81Z"/>
        <path class="cls-2" d="M466.52,255.81v19.15h-3.28v-14.69l-9.11,11.05h-.19l-9.11-11.05v14.69h-3.17v-19.15h3.55l8.89,10.97,8.89-10.97h3.53Z"/>
        <path class="cls-2" d="M492,269.29c0,3.64-3.58,6.24-10.09,6.24-4.49,0-8.45-1.31-11.43-3.88l2.05-2.32c2.6,2.32,5.66,3.37,9.52,3.37,4.27,0,6.62-1.12,6.62-3.12s-2.41-2.49-7.22-2.9c-5.28-.44-10.26-1.61-10.26-5.53s4.41-5.91,9.9-5.91c4.16,0,7.69,1.23,9.98,3.17l-2.08,2.24c-1.97-1.72-4.68-2.54-7.85-2.57-3.04-.03-6.65.71-6.65,2.85s3.2,2.38,7.38,2.71c5.96.46,10.12,1.67,10.12,5.66Z"/>
      </g>
      <g>
        <path class="cls-2" d="M498.32,275.24v-9.57h1.64v9.57h-1.64Z"/>
        <path class="cls-2" d="M513.37,265.67v9.57h-1.45l-7.48-7.55v7.55h-1.59v-9.57h1.75l7.17,7.26v-7.26h1.6Z"/>
        <path class="cls-2" d="M524.98,272.38l1.52.75c-.9,1.39-2.65,2.39-5.07,2.39-3.58,0-5.84-1.93-5.84-5.07s2.26-5.07,5.91-5.07c2.35,0,4.1,1.01,4.99,2.38l-1.53.77c-.71-1.18-1.93-1.7-3.49-1.7-2.53,0-4.21,1.23-4.21,3.62s1.68,3.62,4.21,3.62c1.56,0,2.79-.51,3.51-1.7Z"/>
        <path class="cls-2" d="M527.77,274.46c0-.53.44-.96,1.04-.96s1.05.42,1.05.96-.44.93-1.05.93-1.04-.4-1.04-.93Z"/>
      </g>
    </g>
    <g>
      <polygon class="cls-3" points="297.64 259.06 270.14 288.34 280.5 266.98 273.58 266.98 286.87 237.96 300.36 241.74 288.18 259.06 297.64 259.06"/>
      <g>
        <path class="cls-3" d="M317.05,224.28l-1.48,3.49c-4.33-3.1-9.07-5.78-14.18-7.95-5.11-2.17-10.33-3.71-15.57-4.67l1.48-3.49c5.24.96,10.46,2.5,15.57,4.67,5.11,2.17,9.85,4.85,14.18,7.95Z"/>
        <path class="cls-3" d="M314.63,229.98l-1.48,3.49c-4.33-3.1-9.07-5.78-14.18-7.95-5.11-2.17-10.33-3.71-15.57-4.67l1.48-3.49c5.24.96,10.46,2.5,15.57,4.67,5.11,2.17,9.85,4.85,14.18,7.95Z"/>
        <path class="cls-3" d="M298.02,227.75c-5.11-2.17-10.33-3.71-15.57-4.67l-6.84,16.14,29.75,12.62,6.84-16.14c-4.33-3.1-9.07-5.78-14.18-7.95ZM293.39,238.66c-2.11-.89-3.09-3.33-2.2-5.44s3.33-3.09,5.44-2.2,3.09,3.33,2.2,5.44-3.33,3.09-5.44,2.2Z"/>
      </g>
    </g>
  </g>
</svg>